HIERARCHY
ROOT Hips
{
    OFFSET   0.000000   0.000000   0.000000
    CHANNELS 6 Xposition Yposition Zposition Zrotation Xrotation Yrotation
    JOINT Chest
    {
        OFFSET   0.000000   8.007240   0.000000
        CHANNELS 3 Zrotation Xrotation Yrotation
        JOINT Chest2
        {
            OFFSET   0.000000  22.077100   0.000000
            CHANNELS 3 Zrotation Xrotation Yrotation
            JOINT Neck
            {
                OFFSET   0.000000  23.254800   0.000000
                CHANNELS 3 Zrotation Xrotation Yrotation
                JOINT Head
                {
                    OFFSET   0.000000  14.370000   1.956600
                    CHANNELS 3 Zrotation Xrotation Yrotation
                    End Site
                    {
                        OFFSET   0.000000  19.566000   0.000000
                    }
                }
            }
            JOINT LeftCollar
            {
                OFFSET   3.911900  19.017000  -0.467064
                CHANNELS 3 Zrotation Xrotation Yrotation
                JOINT LeftShoulder
                {
                    OFFSET  10.383700   0.000000   0.000000
                    CHANNELS 3 Zrotation Xrotation Yrotation
                    JOINT LeftElbow
                    {
                        OFFSET  26.662100   0.001476   0.000517
                        CHANNELS 3 Zrotation Xrotation Yrotation
                        JOINT LeftWrist
                        {
                            OFFSET  28.869000  -0.000025  -0.000106
                            CHANNELS 3 Zrotation Xrotation Yrotation
                            JOINT LeftFinger0
                            {
                                OFFSET   2.044660  -2.323460   3.252850
                                CHANNELS 3 Zrotation Xrotation Yrotation
                                JOINT LeftFinger01
                                {
                                    OFFSET   3.088130   0.000000   0.000000
                                    CHANNELS 3 Zrotation Xrotation Yrotation
                                    JOINT LeftFinger02
                                    {
                                        OFFSET   2.639460   0.000000   0.000000
                                        CHANNELS 3 Zrotation Xrotation Yrotation
                                        End Site
                                        {
                                            OFFSET   2.582190   0.000000   0.000000
                                        }
                                    }
                                }
                            }
                            JOINT LeftFinger1
                            {
                                OFFSET   8.364480   0.000000   3.252850
                                CHANNELS 3 Zrotation Xrotation Yrotation
                                JOINT LeftFinger11
                                {
                                    OFFSET   4.646930   0.000000   0.000000
                                    CHANNELS 3 Zrotation Xrotation Yrotation
                                    JOINT LeftFinger12
                                    {
                                        OFFSET   2.323460   0.000000   0.000000
                                        CHANNELS 3 Zrotation Xrotation Yrotation
                                        End Site
                                        {
                                            OFFSET   2.273050   0.000000   0.000000
                                        }
                                    }
                                }
                            }
                            JOINT LeftFinger2
                            {
                                OFFSET   8.364490   0.000015   1.078090
                                CHANNELS 3 Zrotation Xrotation Yrotation
                                JOINT LeftFinger21
                                {
                                    OFFSET   5.111620   0.000000   0.000000
                                    CHANNELS 3 Zrotation Xrotation Yrotation
                                    JOINT LeftFinger22
                                    {
                                        OFFSET   2.788160   0.000016   0.000000
                                        CHANNELS 3 Zrotation Xrotation Yrotation
                                        End Site
                                        {
                                            OFFSET   2.727660   0.000000   0.000000
                                        }
                                    }
                                }
                            }
                            JOINT LeftFinger3
                            {
                                OFFSET   7.899780   0.000017  -1.078090
                                CHANNELS 3 Zrotation Xrotation Yrotation
                                JOINT LeftFinger31
                                {
                                    OFFSET   4.646930   0.000000   0.000000
                                    CHANNELS 3 Zrotation Xrotation Yrotation
                                    JOINT LeftFinger32
                                    {
                                        OFFSET   2.323470   0.000000   0.000000
                                        CHANNELS 3 Zrotation Xrotation Yrotation
                                        End Site
                                        {
                                            OFFSET   2.273050   0.000000   0.000000
                                        }
                                    }
                                }
                            }
                            JOINT LeftFinger4
                            {
                                OFFSET   7.435090   0.000000  -3.252850
                                CHANNELS 3 Zrotation Xrotation Yrotation
                                JOINT LeftFinger41
                                {
                                    OFFSET   3.717550   0.000000   0.000000
                                    CHANNELS 3 Zrotation Xrotation Yrotation
                                    JOINT LeftFinger42
                                    {
                                        OFFSET   1.858770   0.000000   0.000000
                                        CHANNELS 3 Zrotation Xrotation Yrotation
                                        End Site
                                        {
                                            OFFSET   1.818440   0.000000   0.000000
                                        }
                                    }
                                }
                            }
                        }
                    }
                }
            }
            JOINT RightCollar
            {
                OFFSET  -3.911900  19.017000  -0.467063
                CHANNELS 3 Zrotation Xrotation Yrotation
                JOINT RightShoulder
                {
                    OFFSET -10.383700   0.000019   0.000000
                    CHANNELS 3 Zrotation Xrotation Yrotation
                    JOINT RightElbow
                    {
                        OFFSET -26.662100   0.001175   0.000102
                        CHANNELS 3 Zrotation Xrotation Yrotation
                        JOINT RightWrist
                        {
                            OFFSET -28.869000   0.000016  -0.000079
                            CHANNELS 3 Zrotation Xrotation Yrotation
                            JOINT RightFinger0
                            {
                                OFFSET  -2.044660  -2.323490   3.252850
                                CHANNELS 3 Zrotation Xrotation Yrotation
                                JOINT RightFinger01
                                {
                                    OFFSET  -3.088140   0.000000   0.000000
                                    CHANNELS 3 Zrotation Xrotation Yrotation
                                    JOINT RightFinger02
                                    {
                                        OFFSET  -2.639460   0.000000   0.000000
                                        CHANNELS 3 Zrotation Xrotation Yrotation
                                        End Site
                                        {
                                            OFFSET  -2.582190   0.000000   0.000000
                                        }
                                    }
                                }
                            }
                            JOINT RightFinger1
                            {
                                OFFSET  -8.364480   0.000000   3.252850
                                CHANNELS 3 Zrotation Xrotation Yrotation
                                JOINT RightFinger11
                                {
                                    OFFSET  -4.646930   0.000000   0.000000
                                    CHANNELS 3 Zrotation Xrotation Yrotation
                                    JOINT RightFinger12
                                    {
                                        OFFSET  -2.323470   0.000000   0.000000
                                        CHANNELS 3 Zrotation Xrotation Yrotation
                                        End Site
                                        {
                                            OFFSET  -2.273050   0.000000   0.000000
                                        }
                                    }
                                }
                            }
                            JOINT RightFinger2
                            {
                                OFFSET  -8.364480   0.000000   1.078090
                                CHANNELS 3 Zrotation Xrotation Yrotation
                                JOINT RightFinger21
                                {
                                    OFFSET  -5.111620   0.000000   0.000000
                                    CHANNELS 3 Zrotation Xrotation Yrotation
                                    JOINT RightFinger22
                                    {
                                        OFFSET  -2.788160   0.000000   0.000000
                                        CHANNELS 3 Zrotation Xrotation Yrotation
                                        End Site
                                        {
                                            OFFSET  -2.727660   0.000000   0.000000
                                        }
                                    }
                                }
                            }
                            JOINT RightFinger3
                            {
                                OFFSET  -7.899780   0.000000  -1.078090
                                CHANNELS 3 Zrotation Xrotation Yrotation
                                JOINT RightFinger31
                                {
                                    OFFSET  -4.646930   0.000000   0.000000
                                    CHANNELS 3 Zrotation Xrotation Yrotation
                                    JOINT RightFinger32
                                    {
                                        OFFSET  -2.323470   0.000000   0.000000
                                        CHANNELS 3 Zrotation Xrotation Yrotation
                                        End Site
                                        {
                                            OFFSET  -2.273050   0.000000   0.000000
                                        }
                                    }
                                }
                            }
                            JOINT RightFinger4
                            {
                                OFFSET  -7.435090   0.000000  -3.252850
                                CHANNELS 3 Zrotation Xrotation Yrotation
                                JOINT RightFinger41
                                {
                                    OFFSET  -3.717550   0.000000   0.000000
                                    CHANNELS 3 Zrotation Xrotation Yrotation
                                    JOINT RightFinger42
                                    {
                                        OFFSET  -1.858770   0.000000   0.000000
                                        CHANNELS 3 Zrotation Xrotation Yrotation
                                        End Site
                                        {
                                            OFFSET  -1.818440   0.000000   0.000000
                                        }
                                    }
                                }
                            }
                        }
                    }
                }
            }
        }
    }
    JOINT LeftHip
    {
        OFFSET   9.783040   0.000000   0.000000
        CHANNELS 3 Zrotation Xrotation Yrotation
        JOINT LeftKnee
        {
            OFFSET   0.000032 -41.789100  -0.002222
            CHANNELS 3 Zrotation Xrotation Yrotation
            JOINT LeftAnkle
            {
                OFFSET   0.000087 -41.133200  -0.000135
                CHANNELS 3 Zrotation Xrotation Yrotation
                JOINT LeftToe
                {
                    OFFSET   0.000000  -6.358960  14.674500
                    CHANNELS 3 Zrotation Xrotation Yrotation
                    End Site
                    {
                        OFFSET   0.000000   0.000000   3.913200
                    }
                }
            }
        }
    }
    JOINT RightHip
    {
        OFFSET  -9.783040   0.000000   0.000000
        CHANNELS 3 Zrotation Xrotation Yrotation
        JOINT RightKnee
        {
            OFFSET   0.000047 -41.789100  -0.000896
            CHANNELS 3 Zrotation Xrotation Yrotation
            JOINT RightAnkle
            {
                OFFSET  -0.000117 -41.133300  -0.000248
                CHANNELS 3 Zrotation Xrotation Yrotation
                JOINT RightToe
                {
                    OFFSET   0.000000  -6.358970  14.674500
                    CHANNELS 3 Zrotation Xrotation Yrotation
                    End Site
                    {
                        OFFSET   0.000000   0.000000   3.913200
                    }
                }
            }
        }
    }
}
MOTION
Frames: 4
Frame Time:   0.016667
  0.227231  89.445400   1.348120  -2.985020  -4.961310  -1.857400   1.570920   4.328560   0.429574   3.122610   8.667160   0.742783   2.130830  -1.105630   0.044421   3.506670  -2.221940   4.550340  -4.490810   3.140730  -2.017270 -70.468500  20.925000 -10.725500  -3.408780  -5.276710 -11.491300   7.995600  -6.433580  15.101600  38.618100  25.803000 -57.934900 -26.579800  -0.005877   0.011725  -8.289900  -0.002925   0.002333 -35.905800   5.755310  -7.884900 -29.704100  -0.001551  -0.002232 -20.801600   0.005010  -0.001820 -28.912900   1.264690  -2.288420 -43.413000  -0.001856  -0.000801 -28.913000   0.010468  -0.000918 -28.423500  -4.777170   8.744670 -42.516300   0.008035   0.000702 -28.315900   0.001898   0.000361 -35.763100  -5.857150   8.064360 -54.264400  -0.001801   0.000485 -36.140100   0.002237  -0.001820   7.006060   0.016524  11.790600  68.777700  17.199700  -2.813220   0.461679   1.072110  10.318100 -13.001500 -18.930700  -2.728030 -38.471500  35.494400  71.332600  32.226600   0.002074  -0.001196  11.113300   0.003220   0.003536  31.167700   5.015130   8.223980  25.795900  -0.004360   0.000950  18.064700  -0.003505   0.004602  28.346200   3.261600   6.020270  36.352900  -0.000634   0.001619  24.211000  -0.000552  -0.002336  28.743900   0.004012   0.007310  40.255700   0.010542  -0.002730  26.810300   0.005026  -0.005775  39.347800  -0.886706  -1.081390  59.034200   0.005517  -0.005667  39.316800   0.001454  -0.005242   4.031550   8.703020   1.137810   1.267150   0.391020  -0.652701  -2.495020  -3.721890  13.881200   0.000000   0.000000  -0.000000   1.500770   3.886940  -5.996180   0.986369   5.193120   4.219840  -4.141440  -3.649230   0.966619   0.000000   0.000000   0.000000
  0.226370  89.445400   1.356280  -2.985200  -4.974720  -1.857430   1.576410   4.337850   0.428730   3.133670   8.685770   0.740419   2.131310  -1.100490   0.044442   3.506860  -2.216160   4.550510  -4.495490   3.137780  -2.006350 -70.483500  20.958200 -10.751400  -3.405510  -5.291720 -11.491700   8.009660  -6.450370  15.102000  38.606800  25.783600 -57.900200 -26.592600  -0.006110   0.011802  -8.296300  -0.003044   0.002352 -35.905900   5.753680  -7.881800 -29.703800  -0.001558  -0.002252 -20.801600   0.005004  -0.001835 -28.913900   1.254490  -2.270000 -43.409400  -0.001872  -0.000817 -28.911000   0.010463  -0.000928 -28.423400  -4.777400   8.745080 -42.523600   0.008035   0.000707 -28.320800   0.001892   0.000363 -35.754700  -5.856850   8.065770 -54.251900  -0.001818   0.000472 -36.131700   0.002215  -0.001795   6.993800   0.015901  11.789500  68.772500  17.210800  -2.787790   0.455084   1.077620  10.333300 -13.006500 -18.925300  -2.712340 -38.503800  35.510300  71.369300  32.181000   0.002071  -0.001187  11.090500   0.003215   0.003536  31.164700   5.032640   8.253230  25.796200  -0.004343   0.000952  18.061700  -0.003517   0.004608  28.343700   3.274360   6.044120  36.345500  -0.000631   0.001620  24.206100  -0.000572  -0.002331  28.744000   0.020199   0.036824  40.229500   0.010552  -0.002694  26.792900   0.005031  -0.005780  39.336100  -0.883379  -1.077770  59.016600   0.005505  -0.005661  39.305100   0.001453  -0.005232   4.030880   8.732950   1.137880   1.267140   0.366188  -0.652633  -2.496360  -3.713850  13.881600  -0.000000   0.000000   0.000000   1.502500   3.906220  -5.988830   0.986610   5.189850   4.219730  -4.141540  -3.649130   0.962575  -0.000000   0.000000   0.000000
  0.224415  89.445500   1.369590  -2.985830  -5.001620  -1.857510   1.585740   4.356390   0.426898   3.152540   8.722850   0.735529   2.134740  -1.093400   0.044487   3.510680  -2.207790   4.550660  -4.502890   3.130800  -1.986630 -70.504000  21.028100 -10.801300  -3.402100  -5.326280 -11.492400   8.027140  -6.467190  15.101700  38.595500  25.764100 -57.865500 -26.605400  -0.006500   0.011953  -8.302690  -0.003243   0.002398 -35.905900   5.752050  -7.878690 -29.703500  -0.001573  -0.002295 -20.801500   0.004990  -0.001868 -28.915000   1.244280  -2.251570 -43.404200  -0.001910  -0.000854 -28.907200   0.010450  -0.000950 -28.423400  -4.777630   8.745500 -42.530900   0.008033   0.000720 -28.325600   0.001871   0.000366 -35.743100  -5.854910   8.067150 -54.234600  -0.001852   0.000443 -36.120200   0.002159  -0.001732   6.967160   0.012161  11.781500  68.767300  17.241800  -2.724610   0.439264   1.099160  10.357200 -13.028200 -18.919900  -2.694910 -38.545600  35.533400  71.428600  32.118700   0.002061  -0.001178  11.059300   0.003203   0.003537  31.163900   5.058860   8.295780  25.798000  -0.004304   0.000956  18.058700  -0.003547   0.004624  28.340200   3.291730   6.076640  36.333100  -0.000626   0.001625  24.197800  -0.000617  -0.002321  28.744000   0.039588   0.072165  40.184100   0.010574  -0.002622  26.762600   0.005041  -0.005791  39.314800  -0.877336  -1.071210  58.984500   0.005480  -0.005645  39.283700   0.001451  -0.005211   4.029830   8.781680   1.138000   1.267250   0.341356  -0.652167  -2.497690  -3.705810  13.882100  -0.000000   0.000000   0.000000   1.506090   3.943150  -5.981610   0.986852   5.186570   4.219630  -4.141800  -3.649030   0.955027  -0.000000   0.000000  -0.000000
  0.221826  89.445600   1.379530  -2.987170  -5.032350  -1.860800   1.593740   4.377650   0.424162   3.168780   8.765320   0.728884   2.144990  -1.092010   0.044546   3.526850  -2.205680   4.550640  -4.508920   3.120580  -1.964630 -70.508200  21.119200 -10.855800  -3.405020  -5.378650 -11.493400   8.029490  -6.466290  15.092800  38.601000  25.775300 -57.881100 -26.601000  -0.006893   0.012134  -8.300500  -0.003443   0.002466 -35.908800   5.755040  -7.882880 -29.705500  -0.001592  -0.002356 -20.801400   0.004973  -0.001911 -28.915000   1.246460  -2.255590 -43.402100  -0.001968  -0.000907 -28.902800   0.010428  -0.000979 -28.424900  -4.772910   8.736760 -42.527700   0.008028   0.000737 -28.320000   0.001833   0.000370 -35.739200  -5.847910   8.059330 -54.228200  -0.001899   0.000399 -36.116000   0.002073  -0.001640   6.934060   0.005103  11.764800  68.767500  17.285100  -2.630200   0.421020   1.143180  10.368000 -13.076400 -18.925500  -2.692980 -38.558200  35.552100  71.477800  32.097300   0.002046  -0.001189  11.048600   0.003188   0.003538  31.171100   5.076190   8.319720  25.805200  -0.004249   0.000963  18.063100  -0.003593   0.004653  28.339100   3.297430   6.087510  36.325400  -0.000622   0.001633  24.192700  -0.000680  -0.002311  28.744100   0.041722   0.076049  40.145400   0.010605  -0.002529  26.736800   0.005054  -0.005811  39.294200  -0.871494  -1.064850  58.953500   0.005446  -0.005614  39.263000   0.001445  -0.005183   4.033930   8.817300   1.138160   1.267410   0.345006  -0.651549  -2.500050  -3.712240  13.881400   0.000000   0.000000   0.000000   1.509870   3.983020  -5.982210   0.986390   5.186590   4.227130  -4.142280  -3.653320   0.945065   0.000000   0.000000  -0.000000
